<?xml version="1.0" encoding="UTF-8" standalone="no"?>
<!DOCTYPE svg PUBLIC "-//W3C//DTD SVG 1.1//EN"
 "http://www.w3.org/Graphics/SVG/1.1/DTD/svg11.dtd">
<!-- Generated by graphviz version 2.47.0 (20210316.0004)
 -->
<!-- Title: dependencies Pages: 1 -->
<svg width="1932pt" height="211pt"
 viewBox="0.00 0.00 1932.00 211.00" xmlns="http://www.w3.org/2000/svg" xmlns:xlink="http://www.w3.org/1999/xlink">
<g id="graph0" class="graph" transform="scale(1 1) rotate(0) translate(4 207)">
<title>dependencies</title>
<polygon fill="white" stroke="transparent" points="-4,4 -4,-207 1928,-207 1928,4 -4,4"/>
<text text-anchor="start" x="941.01" y="-42.4" font-family="Times-12" font-weight="bold" font-size="14.00">Legend</text>
<polygon fill="#ffffb3" stroke="transparent" points="728,-10 728,-30 748,-30 748,-10 728,-10"/>
<text text-anchor="start" x="751.63" y="-15.4" font-family="Times-12" font-size="14.00"> &#160;Declarations</text>
<polygon fill="#8dd3c7" stroke="transparent" points="841,-10 841,-30 861,-30 861,-10 841,-10"/>
<text text-anchor="start" x="864.73" y="-15.4" font-family="Times-12" font-size="14.00"> &#160;Module</text>
<polygon fill="#80b1d3" stroke="transparent" points="927,-10 927,-30 947,-30 947,-10 927,-10"/>
<text text-anchor="start" x="950.78" y="-15.4" font-family="Times-12" font-size="14.00"> &#160;Bootstrap</text>
<polygon fill="#fdb462" stroke="transparent" points="1024,-10 1024,-30 1044,-30 1044,-10 1024,-10"/>
<text text-anchor="start" x="1047.67" y="-15.4" font-family="Times-12" font-size="14.00"> &#160;Providers</text>
<polygon fill="#fb8072" stroke="transparent" points="1120,-10 1120,-30 1140,-30 1140,-10 1120,-10"/>
<text text-anchor="start" x="1143.73" y="-15.4" font-family="Times-12" font-size="14.00"> &#160;Exports</text>
<g id="clust1" class="cluster">
<title>cluster_AppModule</title>
<polygon fill="none" stroke="black" stroke-dasharray="1,5" points="8,-70 8,-195 1916,-195 1916,-70 8,-70"/>
</g>
<g id="clust3" class="cluster">
<title>cluster_AppModule_imports</title>
<polygon fill="none" stroke="black" points="154,-78 154,-130 1908,-130 1908,-78 154,-78"/>
</g>
<g id="clust6" class="cluster">
<title>cluster_AppModule_providers</title>
<polygon fill="none" stroke="black" points="16,-78 16,-130 146,-130 146,-78 16,-78"/>
</g>
<!-- CountriesModule -->
<g id="node1" class="node">
<title>CountriesModule</title>
<polygon fill="#8dd3c7" stroke="black" points="1899.99,-122 1896.99,-126 1875.99,-126 1872.99,-122 1786.01,-122 1786.01,-86 1899.99,-86 1899.99,-122"/>
<text text-anchor="middle" x="1843" y="-99.8" font-family="Times,serif" font-size="14.00">CountriesModule</text>
</g>
<!-- AppModule -->
<g id="node14" class="node">
<title>AppModule</title>
<polygon fill="#8dd3c7" stroke="black" points="1010.66,-187 1007.66,-191 986.66,-191 983.66,-187 927.34,-187 927.34,-151 1010.66,-151 1010.66,-187"/>
<text text-anchor="middle" x="969" y="-164.8" font-family="Times,serif" font-size="14.00">AppModule</text>
</g>
<!-- CountriesModule&#45;&gt;AppModule -->
<g id="edge1" class="edge">
<title>CountriesModule&#45;&gt;AppModule</title>
<path fill="none" stroke="black" d="M1843,-122.09C1843,-145.13 1843,-182 1843,-182 1843,-182 1020.86,-182 1020.86,-182"/>
<polygon fill="black" stroke="black" points="1020.86,-178.5 1010.86,-182 1020.86,-185.5 1020.86,-178.5"/>
</g>
<!-- DatabaseModule -->
<g id="node2" class="node">
<title>DatabaseModule</title>
<polygon fill="#8dd3c7" stroke="black" points="1768.35,-122 1765.35,-126 1744.35,-126 1741.35,-122 1657.65,-122 1657.65,-86 1768.35,-86 1768.35,-122"/>
<text text-anchor="middle" x="1713" y="-99.8" font-family="Times,serif" font-size="14.00">DatabaseModule</text>
</g>
<!-- DatabaseModule&#45;&gt;AppModule -->
<g id="edge2" class="edge">
<title>DatabaseModule&#45;&gt;AppModule</title>
<path fill="none" stroke="black" d="M1713,-122.04C1713,-143.66 1713,-177 1713,-177 1713,-177 1020.86,-177 1020.86,-177"/>
<polygon fill="black" stroke="black" points="1020.86,-173.5 1010.86,-177 1020.86,-180.5 1020.86,-173.5"/>
</g>
<!-- EventsModule -->
<g id="node3" class="node">
<title>EventsModule</title>
<polygon fill="#8dd3c7" stroke="black" points="1639.65,-122 1636.65,-126 1615.65,-126 1612.65,-122 1542.35,-122 1542.35,-86 1639.65,-86 1639.65,-122"/>
<text text-anchor="middle" x="1591" y="-99.8" font-family="Times,serif" font-size="14.00">EventsModule</text>
</g>
<!-- EventsModule&#45;&gt;AppModule -->
<g id="edge3" class="edge">
<title>EventsModule&#45;&gt;AppModule</title>
<path fill="none" stroke="black" d="M1591,-122.22C1591,-142.37 1591,-172 1591,-172 1591,-172 1020.78,-172 1020.78,-172"/>
<polygon fill="black" stroke="black" points="1020.78,-168.5 1010.78,-172 1020.78,-175.5 1020.78,-168.5"/>
</g>
<!-- FeedbackModule -->
<g id="node4" class="node">
<title>FeedbackModule</title>
<polygon fill="#8dd3c7" stroke="black" points="1524.69,-122 1521.69,-126 1500.69,-126 1497.69,-122 1411.31,-122 1411.31,-86 1524.69,-86 1524.69,-122"/>
<text text-anchor="middle" x="1468" y="-99.8" font-family="Times,serif" font-size="14.00">FeedbackModule</text>
</g>
<!-- FeedbackModule&#45;&gt;AppModule -->
<g id="edge4" class="edge">
<title>FeedbackModule&#45;&gt;AppModule</title>
<path fill="none" stroke="black" d="M1468,-122.22C1468,-140.83 1468,-167 1468,-167 1468,-167 1020.69,-167 1020.69,-167"/>
<polygon fill="black" stroke="black" points="1020.69,-163.5 1010.69,-167 1020.69,-170.5 1020.69,-163.5"/>
</g>
<!-- OrderDetailsModule -->
<g id="node5" class="node">
<title>OrderDetailsModule</title>
<polygon fill="#8dd3c7" stroke="black" points="1392.84,-122 1389.84,-126 1368.84,-126 1365.84,-122 1261.16,-122 1261.16,-86 1392.84,-86 1392.84,-122"/>
<text text-anchor="middle" x="1327" y="-99.8" font-family="Times,serif" font-size="14.00">OrderDetailsModule</text>
</g>
<!-- OrderDetailsModule&#45;&gt;AppModule -->
<g id="edge5" class="edge">
<title>OrderDetailsModule&#45;&gt;AppModule</title>
<path fill="none" stroke="black" d="M1327,-122.03C1327,-139.06 1327,-162 1327,-162 1327,-162 1020.77,-162 1020.77,-162"/>
<polygon fill="black" stroke="black" points="1020.77,-158.5 1010.77,-162 1020.77,-165.5 1020.77,-158.5"/>
</g>
<!-- OrderStatusesModule -->
<g id="node6" class="node">
<title>OrderStatusesModule</title>
<polygon fill="#8dd3c7" stroke="black" points="1243.07,-122 1240.07,-126 1219.07,-126 1216.07,-122 1104.93,-122 1104.93,-86 1243.07,-86 1243.07,-122"/>
<text text-anchor="middle" x="1174" y="-99.8" font-family="Times,serif" font-size="14.00">OrderStatusesModule</text>
</g>
<!-- OrderStatusesModule&#45;&gt;AppModule -->
<g id="edge6" class="edge">
<title>OrderStatusesModule&#45;&gt;AppModule</title>
<path fill="none" stroke="black" d="M1174,-122.24C1174,-137.57 1174,-157 1174,-157 1174,-157 1020.98,-157 1020.98,-157"/>
<polygon fill="black" stroke="black" points="1020.98,-153.5 1010.98,-157 1020.98,-160.5 1020.98,-153.5"/>
</g>
<!-- OrdersModule -->
<g id="node7" class="node">
<title>OrdersModule</title>
<polygon fill="#8dd3c7" stroke="black" points="1086.64,-122 1083.64,-126 1062.64,-126 1059.64,-122 989.36,-122 989.36,-86 1086.64,-86 1086.64,-122"/>
<text text-anchor="middle" x="1038" y="-99.8" font-family="Times,serif" font-size="14.00">OrdersModule</text>
</g>
<!-- OrdersModule&#45;&gt;AppModule -->
<g id="edge7" class="edge">
<title>OrdersModule&#45;&gt;AppModule</title>
<path fill="none" stroke="black" d="M1000,-122.11C1000,-122.11 1000,-140.99 1000,-140.99"/>
<polygon fill="black" stroke="black" points="996.5,-140.99 1000,-150.99 1003.5,-140.99 996.5,-140.99"/>
</g>
<!-- PaymentTypesModule -->
<g id="node8" class="node">
<title>PaymentTypesModule</title>
<polygon fill="#8dd3c7" stroke="black" points="971.25,-122 968.25,-126 947.25,-126 944.25,-122 828.75,-122 828.75,-86 971.25,-86 971.25,-122"/>
<text text-anchor="middle" x="900" y="-99.8" font-family="Times,serif" font-size="14.00">PaymentTypesModule</text>
</g>
<!-- PaymentTypesModule&#45;&gt;AppModule -->
<g id="edge8" class="edge">
<title>PaymentTypesModule&#45;&gt;AppModule</title>
<path fill="none" stroke="black" d="M949.27,-122.11C949.27,-122.11 949.27,-140.99 949.27,-140.99"/>
<polygon fill="black" stroke="black" points="945.77,-140.99 949.27,-150.99 952.77,-140.99 945.77,-140.99"/>
</g>
<!-- ProductsModule -->
<g id="node9" class="node">
<title>ProductsModule</title>
<polygon fill="#8dd3c7" stroke="black" points="810.04,-122 807.04,-126 786.04,-126 783.04,-122 701.96,-122 701.96,-86 810.04,-86 810.04,-122"/>
<text text-anchor="middle" x="756" y="-99.8" font-family="Times,serif" font-size="14.00">ProductsModule</text>
</g>
<!-- ProductsModule&#45;&gt;AppModule -->
<g id="edge9" class="edge">
<title>ProductsModule&#45;&gt;AppModule</title>
<path fill="none" stroke="black" d="M756,-122.24C756,-137.57 756,-157 756,-157 756,-157 917.17,-157 917.17,-157"/>
<polygon fill="black" stroke="black" points="917.17,-160.5 927.17,-157 917.17,-153.5 917.17,-160.5"/>
</g>
<!-- PromotionsModule -->
<g id="node10" class="node">
<title>PromotionsModule</title>
<polygon fill="#8dd3c7" stroke="black" points="684.11,-122 681.11,-126 660.11,-126 657.11,-122 559.89,-122 559.89,-86 684.11,-86 684.11,-122"/>
<text text-anchor="middle" x="622" y="-99.8" font-family="Times,serif" font-size="14.00">PromotionsModule</text>
</g>
<!-- PromotionsModule&#45;&gt;AppModule -->
<g id="edge10" class="edge">
<title>PromotionsModule&#45;&gt;AppModule</title>
<path fill="none" stroke="black" d="M622,-122.03C622,-139.06 622,-162 622,-162 622,-162 917.14,-162 917.14,-162"/>
<polygon fill="black" stroke="black" points="917.14,-165.5 927.14,-162 917.14,-158.5 917.14,-165.5"/>
</g>
<!-- TransactionsModule -->
<g id="node11" class="node">
<title>TransactionsModule</title>
<polygon fill="#8dd3c7" stroke="black" points="541.58,-122 538.58,-126 517.58,-126 514.58,-122 410.42,-122 410.42,-86 541.58,-86 541.58,-122"/>
<text text-anchor="middle" x="476" y="-99.8" font-family="Times,serif" font-size="14.00">TransactionsModule</text>
</g>
<!-- TransactionsModule&#45;&gt;AppModule -->
<g id="edge11" class="edge">
<title>TransactionsModule&#45;&gt;AppModule</title>
<path fill="none" stroke="black" d="M476,-122.22C476,-140.83 476,-167 476,-167 476,-167 916.97,-167 916.97,-167"/>
<polygon fill="black" stroke="black" points="916.97,-170.5 926.97,-167 916.97,-163.5 916.97,-170.5"/>
</g>
<!-- UserTypesModule -->
<g id="node12" class="node">
<title>UserTypesModule</title>
<polygon fill="#8dd3c7" stroke="black" points="392.19,-122 389.19,-126 368.19,-126 365.19,-122 271.81,-122 271.81,-86 392.19,-86 392.19,-122"/>
<text text-anchor="middle" x="332" y="-99.8" font-family="Times,serif" font-size="14.00">UserTypesModule</text>
</g>
<!-- UserTypesModule&#45;&gt;AppModule -->
<g id="edge12" class="edge">
<title>UserTypesModule&#45;&gt;AppModule</title>
<path fill="none" stroke="black" d="M332,-122.22C332,-142.37 332,-172 332,-172 332,-172 917.2,-172 917.2,-172"/>
<polygon fill="black" stroke="black" points="917.2,-175.5 927.2,-172 917.2,-168.5 917.2,-175.5"/>
</g>
<!-- UsersModule -->
<g id="node13" class="node">
<title>UsersModule</title>
<polygon fill="#8dd3c7" stroke="black" points="253.92,-122 250.92,-126 229.92,-126 226.92,-122 162.08,-122 162.08,-86 253.92,-86 253.92,-122"/>
<text text-anchor="middle" x="208" y="-99.8" font-family="Times,serif" font-size="14.00">UsersModule</text>
</g>
<!-- UsersModule&#45;&gt;AppModule -->
<g id="edge13" class="edge">
<title>UsersModule&#45;&gt;AppModule</title>
<path fill="none" stroke="black" d="M208,-122.04C208,-143.66 208,-177 208,-177 208,-177 917.27,-177 917.27,-177"/>
<polygon fill="black" stroke="black" points="917.27,-180.5 927.27,-177 917.27,-173.5 917.27,-180.5"/>
</g>
<!-- AppService -->
<g id="node15" class="node">
<title>AppService</title>
<ellipse fill="#fdb462" stroke="black" cx="81" cy="-104" rx="56.74" ry="18"/>
<text text-anchor="middle" x="81" y="-99.8" font-family="Times,serif" font-size="14.00">AppService</text>
</g>
<!-- AppService&#45;&gt;AppModule -->
<g id="edge14" class="edge">
<title>AppService&#45;&gt;AppModule</title>
<path fill="none" stroke="black" d="M81,-122.09C81,-145.13 81,-182 81,-182 81,-182 917.06,-182 917.06,-182"/>
<polygon fill="black" stroke="black" points="917.06,-185.5 927.06,-182 917.06,-178.5 917.06,-185.5"/>
</g>
</g>
</svg>
