<?xml version="1.0" encoding="UTF-8" standalone="no"?>
<!DOCTYPE svg PUBLIC "-//W3C//DTD SVG 1.1//EN"
 "http://www.w3.org/Graphics/SVG/1.1/DTD/svg11.dtd">
<!-- Generated by graphviz version 2.47.0 (20210316.0004)
 -->
<!-- Title: dependencies Pages: 1 -->
<svg width="1932pt" height="287pt"
 viewBox="0.00 0.00 1932.00 287.00" xmlns="http://www.w3.org/2000/svg" xmlns:xlink="http://www.w3.org/1999/xlink">
<g id="graph0" class="graph" transform="scale(1 1) rotate(0) translate(4 283)">
<title>dependencies</title>
<polygon fill="white" stroke="transparent" points="-4,4 -4,-283 1928,-283 1928,4 -4,4"/>
<text text-anchor="start" x="941.01" y="-42.4" font-family="Times-12" font-weight="bold" font-size="14.00">Legend</text>
<polygon fill="#ffffb3" stroke="transparent" points="728,-10 728,-30 748,-30 748,-10 728,-10"/>
<text text-anchor="start" x="751.63" y="-15.4" font-family="Times-12" font-size="14.00"> &#160;Declarations</text>
<polygon fill="#8dd3c7" stroke="transparent" points="841,-10 841,-30 861,-30 861,-10 841,-10"/>
<text text-anchor="start" x="864.73" y="-15.4" font-family="Times-12" font-size="14.00"> &#160;Module</text>
<polygon fill="#80b1d3" stroke="transparent" points="927,-10 927,-30 947,-30 947,-10 927,-10"/>
<text text-anchor="start" x="950.78" y="-15.4" font-family="Times-12" font-size="14.00"> &#160;Bootstrap</text>
<polygon fill="#fdb462" stroke="transparent" points="1024,-10 1024,-30 1044,-30 1044,-10 1024,-10"/>
<text text-anchor="start" x="1047.67" y="-15.4" font-family="Times-12" font-size="14.00"> &#160;Providers</text>
<polygon fill="#fb8072" stroke="transparent" points="1120,-10 1120,-30 1140,-30 1140,-10 1120,-10"/>
<text text-anchor="start" x="1143.73" y="-15.4" font-family="Times-12" font-size="14.00"> &#160;Exports</text>
<g id="clust1" class="cluster">
<title>cluster_AppModule</title>
<polygon fill="none" stroke="black" stroke-dasharray="1,5" points="8,-146 8,-271 1916,-271 1916,-146 8,-146"/>
</g>
<g id="clust3" class="cluster">
<title>cluster_AppModule_imports</title>
<polygon fill="none" stroke="black" points="154,-154 154,-206 1908,-206 1908,-154 154,-154"/>
</g>
<g id="clust6" class="cluster">
<title>cluster_AppModule_providers</title>
<polygon fill="none" stroke="black" points="16,-154 16,-206 146,-206 146,-154 16,-154"/>
</g>
<g id="clust55" class="cluster">
<title>cluster_ProductsModule</title>
<polygon fill="none" stroke="black" stroke-dasharray="1,5" points="666,-70 666,-138 846,-138 846,-70 666,-70"/>
</g>
<g id="clust60" class="cluster">
<title>cluster_ProductsModule_providers</title>
<polygon fill="none" stroke="black" points="674,-78 674,-130 838,-130 838,-78 674,-78"/>
</g>
<!-- CountriesModule -->
<g id="node1" class="node">
<title>CountriesModule</title>
<polygon fill="#8dd3c7" stroke="black" points="1899.99,-198 1896.99,-202 1875.99,-202 1872.99,-198 1786.01,-198 1786.01,-162 1899.99,-162 1899.99,-198"/>
<text text-anchor="middle" x="1843" y="-175.8" font-family="Times,serif" font-size="14.00">CountriesModule</text>
</g>
<!-- AppModule -->
<g id="node14" class="node">
<title>AppModule</title>
<polygon fill="#8dd3c7" stroke="black" points="1010.66,-263 1007.66,-267 986.66,-267 983.66,-263 927.34,-263 927.34,-227 1010.66,-227 1010.66,-263"/>
<text text-anchor="middle" x="969" y="-240.8" font-family="Times,serif" font-size="14.00">AppModule</text>
</g>
<!-- CountriesModule&#45;&gt;AppModule -->
<g id="edge1" class="edge">
<title>CountriesModule&#45;&gt;AppModule</title>
<path fill="none" stroke="black" d="M1843,-198.09C1843,-221.13 1843,-258 1843,-258 1843,-258 1020.86,-258 1020.86,-258"/>
<polygon fill="black" stroke="black" points="1020.86,-254.5 1010.86,-258 1020.86,-261.5 1020.86,-254.5"/>
</g>
<!-- DatabaseModule -->
<g id="node2" class="node">
<title>DatabaseModule</title>
<polygon fill="#8dd3c7" stroke="black" points="1768.35,-198 1765.35,-202 1744.35,-202 1741.35,-198 1657.65,-198 1657.65,-162 1768.35,-162 1768.35,-198"/>
<text text-anchor="middle" x="1713" y="-175.8" font-family="Times,serif" font-size="14.00">DatabaseModule</text>
</g>
<!-- DatabaseModule&#45;&gt;AppModule -->
<g id="edge2" class="edge">
<title>DatabaseModule&#45;&gt;AppModule</title>
<path fill="none" stroke="black" d="M1713,-198.04C1713,-219.66 1713,-253 1713,-253 1713,-253 1020.86,-253 1020.86,-253"/>
<polygon fill="black" stroke="black" points="1020.86,-249.5 1010.86,-253 1020.86,-256.5 1020.86,-249.5"/>
</g>
<!-- EventsModule -->
<g id="node3" class="node">
<title>EventsModule</title>
<polygon fill="#8dd3c7" stroke="black" points="1639.65,-198 1636.65,-202 1615.65,-202 1612.65,-198 1542.35,-198 1542.35,-162 1639.65,-162 1639.65,-198"/>
<text text-anchor="middle" x="1591" y="-175.8" font-family="Times,serif" font-size="14.00">EventsModule</text>
</g>
<!-- EventsModule&#45;&gt;AppModule -->
<g id="edge3" class="edge">
<title>EventsModule&#45;&gt;AppModule</title>
<path fill="none" stroke="black" d="M1591,-198.22C1591,-218.37 1591,-248 1591,-248 1591,-248 1020.78,-248 1020.78,-248"/>
<polygon fill="black" stroke="black" points="1020.78,-244.5 1010.78,-248 1020.78,-251.5 1020.78,-244.5"/>
</g>
<!-- FeedbackModule -->
<g id="node4" class="node">
<title>FeedbackModule</title>
<polygon fill="#8dd3c7" stroke="black" points="1524.69,-198 1521.69,-202 1500.69,-202 1497.69,-198 1411.31,-198 1411.31,-162 1524.69,-162 1524.69,-198"/>
<text text-anchor="middle" x="1468" y="-175.8" font-family="Times,serif" font-size="14.00">FeedbackModule</text>
</g>
<!-- FeedbackModule&#45;&gt;AppModule -->
<g id="edge4" class="edge">
<title>FeedbackModule&#45;&gt;AppModule</title>
<path fill="none" stroke="black" d="M1468,-198.22C1468,-216.83 1468,-243 1468,-243 1468,-243 1020.69,-243 1020.69,-243"/>
<polygon fill="black" stroke="black" points="1020.69,-239.5 1010.69,-243 1020.69,-246.5 1020.69,-239.5"/>
</g>
<!-- OrderDetailsModule -->
<g id="node5" class="node">
<title>OrderDetailsModule</title>
<polygon fill="#8dd3c7" stroke="black" points="1392.84,-198 1389.84,-202 1368.84,-202 1365.84,-198 1261.16,-198 1261.16,-162 1392.84,-162 1392.84,-198"/>
<text text-anchor="middle" x="1327" y="-175.8" font-family="Times,serif" font-size="14.00">OrderDetailsModule</text>
</g>
<!-- OrderDetailsModule&#45;&gt;AppModule -->
<g id="edge5" class="edge">
<title>OrderDetailsModule&#45;&gt;AppModule</title>
<path fill="none" stroke="black" d="M1327,-198.03C1327,-215.06 1327,-238 1327,-238 1327,-238 1020.77,-238 1020.77,-238"/>
<polygon fill="black" stroke="black" points="1020.77,-234.5 1010.77,-238 1020.77,-241.5 1020.77,-234.5"/>
</g>
<!-- OrderStatusesModule -->
<g id="node6" class="node">
<title>OrderStatusesModule</title>
<polygon fill="#8dd3c7" stroke="black" points="1243.07,-198 1240.07,-202 1219.07,-202 1216.07,-198 1104.93,-198 1104.93,-162 1243.07,-162 1243.07,-198"/>
<text text-anchor="middle" x="1174" y="-175.8" font-family="Times,serif" font-size="14.00">OrderStatusesModule</text>
</g>
<!-- OrderStatusesModule&#45;&gt;AppModule -->
<g id="edge6" class="edge">
<title>OrderStatusesModule&#45;&gt;AppModule</title>
<path fill="none" stroke="black" d="M1174,-198.24C1174,-213.57 1174,-233 1174,-233 1174,-233 1020.98,-233 1020.98,-233"/>
<polygon fill="black" stroke="black" points="1020.98,-229.5 1010.98,-233 1020.98,-236.5 1020.98,-229.5"/>
</g>
<!-- OrdersModule -->
<g id="node7" class="node">
<title>OrdersModule</title>
<polygon fill="#8dd3c7" stroke="black" points="1086.64,-198 1083.64,-202 1062.64,-202 1059.64,-198 989.36,-198 989.36,-162 1086.64,-162 1086.64,-198"/>
<text text-anchor="middle" x="1038" y="-175.8" font-family="Times,serif" font-size="14.00">OrdersModule</text>
</g>
<!-- OrdersModule&#45;&gt;AppModule -->
<g id="edge7" class="edge">
<title>OrdersModule&#45;&gt;AppModule</title>
<path fill="none" stroke="black" d="M1000,-198.11C1000,-198.11 1000,-216.99 1000,-216.99"/>
<polygon fill="black" stroke="black" points="996.5,-216.99 1000,-226.99 1003.5,-216.99 996.5,-216.99"/>
</g>
<!-- PaymentTypesModule -->
<g id="node8" class="node">
<title>PaymentTypesModule</title>
<polygon fill="#8dd3c7" stroke="black" points="971.25,-198 968.25,-202 947.25,-202 944.25,-198 828.75,-198 828.75,-162 971.25,-162 971.25,-198"/>
<text text-anchor="middle" x="900" y="-175.8" font-family="Times,serif" font-size="14.00">PaymentTypesModule</text>
</g>
<!-- PaymentTypesModule&#45;&gt;AppModule -->
<g id="edge8" class="edge">
<title>PaymentTypesModule&#45;&gt;AppModule</title>
<path fill="none" stroke="black" d="M949.27,-198.11C949.27,-198.11 949.27,-216.99 949.27,-216.99"/>
<polygon fill="black" stroke="black" points="945.77,-216.99 949.27,-226.99 952.77,-216.99 945.77,-216.99"/>
</g>
<!-- ProductsModule -->
<g id="node9" class="node">
<title>ProductsModule</title>
<polygon fill="#8dd3c7" stroke="black" points="810.04,-198 807.04,-202 786.04,-202 783.04,-198 701.96,-198 701.96,-162 810.04,-162 810.04,-198"/>
<text text-anchor="middle" x="756" y="-175.8" font-family="Times,serif" font-size="14.00">ProductsModule</text>
</g>
<!-- ProductsModule&#45;&gt;AppModule -->
<g id="edge9" class="edge">
<title>ProductsModule&#45;&gt;AppModule</title>
<path fill="none" stroke="black" d="M756,-198.24C756,-213.57 756,-233 756,-233 756,-233 917.17,-233 917.17,-233"/>
<polygon fill="black" stroke="black" points="917.17,-236.5 927.17,-233 917.17,-229.5 917.17,-236.5"/>
</g>
<!-- PromotionsModule -->
<g id="node10" class="node">
<title>PromotionsModule</title>
<polygon fill="#8dd3c7" stroke="black" points="684.11,-198 681.11,-202 660.11,-202 657.11,-198 559.89,-198 559.89,-162 684.11,-162 684.11,-198"/>
<text text-anchor="middle" x="622" y="-175.8" font-family="Times,serif" font-size="14.00">PromotionsModule</text>
</g>
<!-- PromotionsModule&#45;&gt;AppModule -->
<g id="edge10" class="edge">
<title>PromotionsModule&#45;&gt;AppModule</title>
<path fill="none" stroke="black" d="M622,-198.03C622,-215.06 622,-238 622,-238 622,-238 917.14,-238 917.14,-238"/>
<polygon fill="black" stroke="black" points="917.14,-241.5 927.14,-238 917.14,-234.5 917.14,-241.5"/>
</g>
<!-- TransactionsModule -->
<g id="node11" class="node">
<title>TransactionsModule</title>
<polygon fill="#8dd3c7" stroke="black" points="541.58,-198 538.58,-202 517.58,-202 514.58,-198 410.42,-198 410.42,-162 541.58,-162 541.58,-198"/>
<text text-anchor="middle" x="476" y="-175.8" font-family="Times,serif" font-size="14.00">TransactionsModule</text>
</g>
<!-- TransactionsModule&#45;&gt;AppModule -->
<g id="edge11" class="edge">
<title>TransactionsModule&#45;&gt;AppModule</title>
<path fill="none" stroke="black" d="M476,-198.22C476,-216.83 476,-243 476,-243 476,-243 916.97,-243 916.97,-243"/>
<polygon fill="black" stroke="black" points="916.97,-246.5 926.97,-243 916.97,-239.5 916.97,-246.5"/>
</g>
<!-- UserTypesModule -->
<g id="node12" class="node">
<title>UserTypesModule</title>
<polygon fill="#8dd3c7" stroke="black" points="392.19,-198 389.19,-202 368.19,-202 365.19,-198 271.81,-198 271.81,-162 392.19,-162 392.19,-198"/>
<text text-anchor="middle" x="332" y="-175.8" font-family="Times,serif" font-size="14.00">UserTypesModule</text>
</g>
<!-- UserTypesModule&#45;&gt;AppModule -->
<g id="edge12" class="edge">
<title>UserTypesModule&#45;&gt;AppModule</title>
<path fill="none" stroke="black" d="M332,-198.22C332,-218.37 332,-248 332,-248 332,-248 917.2,-248 917.2,-248"/>
<polygon fill="black" stroke="black" points="917.2,-251.5 927.2,-248 917.2,-244.5 917.2,-251.5"/>
</g>
<!-- UsersModule -->
<g id="node13" class="node">
<title>UsersModule</title>
<polygon fill="#8dd3c7" stroke="black" points="253.92,-198 250.92,-202 229.92,-202 226.92,-198 162.08,-198 162.08,-162 253.92,-162 253.92,-198"/>
<text text-anchor="middle" x="208" y="-175.8" font-family="Times,serif" font-size="14.00">UsersModule</text>
</g>
<!-- UsersModule&#45;&gt;AppModule -->
<g id="edge13" class="edge">
<title>UsersModule&#45;&gt;AppModule</title>
<path fill="none" stroke="black" d="M208,-198.04C208,-219.66 208,-253 208,-253 208,-253 917.27,-253 917.27,-253"/>
<polygon fill="black" stroke="black" points="917.27,-256.5 927.27,-253 917.27,-249.5 917.27,-256.5"/>
</g>
<!-- AppService -->
<g id="node15" class="node">
<title>AppService</title>
<ellipse fill="#fdb462" stroke="black" cx="81" cy="-180" rx="56.74" ry="18"/>
<text text-anchor="middle" x="81" y="-175.8" font-family="Times,serif" font-size="14.00">AppService</text>
</g>
<!-- AppService&#45;&gt;AppModule -->
<g id="edge14" class="edge">
<title>AppService&#45;&gt;AppModule</title>
<path fill="none" stroke="black" d="M81,-198.09C81,-221.13 81,-258 81,-258 81,-258 917.06,-258 917.06,-258"/>
<polygon fill="black" stroke="black" points="917.06,-261.5 927.06,-258 917.06,-254.5 917.06,-261.5"/>
</g>
<!-- ProductsService -->
<g id="node16" class="node">
<title>ProductsService</title>
<ellipse fill="#fdb462" stroke="black" cx="756" cy="-104" rx="73.57" ry="18"/>
<text text-anchor="middle" x="756" y="-99.8" font-family="Times,serif" font-size="14.00">ProductsService</text>
</g>
<!-- ProductsService&#45;&gt;ProductsModule -->
<g id="edge15" class="edge">
<title>ProductsService&#45;&gt;ProductsModule</title>
<path fill="none" stroke="black" d="M756,-122.01C756,-122.01 756,-151.85 756,-151.85"/>
<polygon fill="black" stroke="black" points="752.5,-151.85 756,-161.85 759.5,-151.85 752.5,-151.85"/>
</g>
</g>
</svg>
